<mxfile host="app.diagrams.net" modified="2024-01-11T15:05:59.179Z" agent="Mozilla/5.0 (Windows NT 10.0; Win64; x64) AppleWebKit/537.36 (KHTML, like Gecko) Chrome/120.0.0.0 Safari/537.36" etag="44t4HR6Tm0yeS9JSHe-B" version="22.1.18" type="github">
  <diagram id="2jVvIxayUnxTayxjRX0E" name="第 1 页">
    <mxGraphModel dx="1994" dy="580" grid="1" gridSize="10" guides="1" tooltips="1" connect="1" arrows="1" fold="1" page="1" pageScale="1" pageWidth="827" pageHeight="1169" math="0" shadow="0">
      <root>
        <mxCell id="0" />
        <mxCell id="1" parent="0" />
        <mxCell id="FfL3hTgW6DCg_s3KEA9l-1" value="装备构件" style="swimlane;fontStyle=1;align=center;verticalAlign=top;childLayout=stackLayout;horizontal=1;startSize=26;horizontalStack=0;resizeParent=1;resizeParentMax=0;resizeLast=0;collapsible=1;marginBottom=0;whiteSpace=wrap;html=1;" vertex="1" parent="1">
          <mxGeometry x="190" y="430" width="180" height="230" as="geometry" />
        </mxCell>
        <mxCell id="FfL3hTgW6DCg_s3KEA9l-2" value="&lt;pre style=&quot;&quot;&gt;&lt;div style=&quot;&quot;&gt;&lt;span style=&quot;background-color: initial; white-space: normal;&quot;&gt;&lt;font face=&quot;Helvetica&quot;&gt;+ 名称: String&lt;/font&gt;&lt;/span&gt;&lt;/div&gt;&lt;font face=&quot;ES1aWuPAkD6Uu4TIPl8G&quot;&gt;+ 类型: String&lt;br&gt;+ 制造日期: Date&lt;br&gt;+ 使用寿命: Integer&lt;br&gt;+ 维护记录: String&lt;/font&gt;&lt;br&gt;&lt;/pre&gt;" style="text;strokeColor=none;fillColor=none;align=left;verticalAlign=top;spacingLeft=4;spacingRight=4;overflow=hidden;rotatable=0;points=[[0,0.5],[1,0.5]];portConstraint=eastwest;whiteSpace=wrap;html=1;" vertex="1" parent="FfL3hTgW6DCg_s3KEA9l-1">
          <mxGeometry y="26" width="180" height="104" as="geometry" />
        </mxCell>
        <mxCell id="FfL3hTgW6DCg_s3KEA9l-3" value="" style="line;strokeWidth=1;fillColor=none;align=left;verticalAlign=middle;spacingTop=-1;spacingLeft=3;spacingRight=3;rotatable=0;labelPosition=right;points=[];portConstraint=eastwest;strokeColor=inherit;" vertex="1" parent="FfL3hTgW6DCg_s3KEA9l-1">
          <mxGeometry y="130" width="180" height="8" as="geometry" />
        </mxCell>
        <mxCell id="FfL3hTgW6DCg_s3KEA9l-4" value="&lt;pre&gt;&lt;font face=&quot;Helvetica&quot;&gt;+ 初始化(构造函数): void&lt;br&gt;+ 更新维护记录(String): void&lt;br&gt;+ 更新使用状态(String): void&lt;br&gt;+ 获取装备信息(void): String&lt;/font&gt;&lt;/pre&gt;&lt;pre&gt;&lt;font face=&quot;Helvetica&quot;&gt;&lt;br&gt;&lt;/font&gt;&lt;/pre&gt;" style="text;strokeColor=none;fillColor=none;align=left;verticalAlign=top;spacingLeft=4;spacingRight=4;overflow=hidden;rotatable=0;points=[[0,0.5],[1,0.5]];portConstraint=eastwest;whiteSpace=wrap;html=1;" vertex="1" parent="FfL3hTgW6DCg_s3KEA9l-1">
          <mxGeometry y="138" width="180" height="92" as="geometry" />
        </mxCell>
        <mxCell id="FfL3hTgW6DCg_s3KEA9l-6" value="" style="endArrow=none;html=1;rounded=0;entryX=0.502;entryY=0.989;entryDx=0;entryDy=0;entryPerimeter=0;exitX=1;exitY=0.526;exitDx=0;exitDy=0;exitPerimeter=0;" edge="1" parent="1" target="FfL3hTgW6DCg_s3KEA9l-4">
          <mxGeometry width="50" height="50" relative="1" as="geometry">
            <mxPoint x="280" y="729.9879999999998" as="sourcePoint" />
            <mxPoint x="300" y="670" as="targetPoint" />
          </mxGeometry>
        </mxCell>
        <mxCell id="FfL3hTgW6DCg_s3KEA9l-8" value="" style="endArrow=none;html=1;rounded=0;" edge="1" parent="1">
          <mxGeometry width="50" height="50" relative="1" as="geometry">
            <mxPoint x="40" y="720" as="sourcePoint" />
            <mxPoint x="40" y="800" as="targetPoint" />
          </mxGeometry>
        </mxCell>
        <mxCell id="FfL3hTgW6DCg_s3KEA9l-9" value="" style="endArrow=none;html=1;rounded=0;" edge="1" parent="1">
          <mxGeometry width="50" height="50" relative="1" as="geometry">
            <mxPoint x="280" y="800" as="sourcePoint" />
            <mxPoint x="280" y="729" as="targetPoint" />
          </mxGeometry>
        </mxCell>
        <mxCell id="FfL3hTgW6DCg_s3KEA9l-10" value="" style="endArrow=none;html=1;rounded=0;" edge="1" parent="1">
          <mxGeometry width="50" height="50" relative="1" as="geometry">
            <mxPoint x="520" y="720" as="sourcePoint" />
            <mxPoint x="280" y="720" as="targetPoint" />
          </mxGeometry>
        </mxCell>
        <mxCell id="FfL3hTgW6DCg_s3KEA9l-11" value="" style="endArrow=none;html=1;rounded=0;" edge="1" parent="1">
          <mxGeometry width="50" height="50" relative="1" as="geometry">
            <mxPoint x="40" y="720" as="sourcePoint" />
            <mxPoint x="280" y="720" as="targetPoint" />
          </mxGeometry>
        </mxCell>
        <mxCell id="FfL3hTgW6DCg_s3KEA9l-13" value="" style="endArrow=none;html=1;rounded=0;" edge="1" parent="1">
          <mxGeometry width="50" height="50" relative="1" as="geometry">
            <mxPoint x="520" y="800" as="sourcePoint" />
            <mxPoint x="520" y="720" as="targetPoint" />
          </mxGeometry>
        </mxCell>
        <mxCell id="FfL3hTgW6DCg_s3KEA9l-14" value="空中装备" style="swimlane;fontStyle=1;align=center;verticalAlign=top;childLayout=stackLayout;horizontal=1;startSize=26;horizontalStack=0;resizeParent=1;resizeParentMax=0;resizeLast=0;collapsible=1;marginBottom=0;whiteSpace=wrap;html=1;" vertex="1" parent="1">
          <mxGeometry x="-50" y="800" width="180" height="230" as="geometry" />
        </mxCell>
        <mxCell id="FfL3hTgW6DCg_s3KEA9l-15" value="&lt;pre style=&quot;&quot;&gt;&lt;div style=&quot;&quot;&gt;&lt;pre&gt;&lt;font face=&quot;Helvetica&quot;&gt;+ 飞行速度: Integer&lt;br&gt;+ 最大载荷: Integer&lt;br&gt;+ 作战半径: Integer&lt;br&gt;+ 机体材料: String&lt;br&gt;+ 发动机类型: String&lt;/font&gt;&lt;br&gt;&lt;/pre&gt;&lt;/div&gt;&lt;/pre&gt;" style="text;strokeColor=none;fillColor=none;align=left;verticalAlign=top;spacingLeft=4;spacingRight=4;overflow=hidden;rotatable=0;points=[[0,0.5],[1,0.5]];portConstraint=eastwest;whiteSpace=wrap;html=1;" vertex="1" parent="FfL3hTgW6DCg_s3KEA9l-14">
          <mxGeometry y="26" width="180" height="104" as="geometry" />
        </mxCell>
        <mxCell id="FfL3hTgW6DCg_s3KEA9l-16" value="" style="line;strokeWidth=1;fillColor=none;align=left;verticalAlign=middle;spacingTop=-1;spacingLeft=3;spacingRight=3;rotatable=0;labelPosition=right;points=[];portConstraint=eastwest;strokeColor=inherit;" vertex="1" parent="FfL3hTgW6DCg_s3KEA9l-14">
          <mxGeometry y="130" width="180" height="8" as="geometry" />
        </mxCell>
        <mxCell id="FfL3hTgW6DCg_s3KEA9l-17" value="&lt;pre style=&quot;&quot;&gt;&lt;font face=&quot;Helvetica&quot;&gt;+ 起飞操作(void): void&lt;br&gt;+ 降落操作(void): void&lt;br&gt;+ 武器发射(void): void&lt;br&gt;+ 导航控制(void): void&lt;/font&gt;&lt;br&gt;&lt;/pre&gt;" style="text;strokeColor=none;fillColor=none;align=left;verticalAlign=top;spacingLeft=4;spacingRight=4;overflow=hidden;rotatable=0;points=[[0,0.5],[1,0.5]];portConstraint=eastwest;whiteSpace=wrap;html=1;" vertex="1" parent="FfL3hTgW6DCg_s3KEA9l-14">
          <mxGeometry y="138" width="180" height="92" as="geometry" />
        </mxCell>
        <mxCell id="FfL3hTgW6DCg_s3KEA9l-18" value="地上装备" style="swimlane;fontStyle=1;align=center;verticalAlign=top;childLayout=stackLayout;horizontal=1;startSize=26;horizontalStack=0;resizeParent=1;resizeParentMax=0;resizeLast=0;collapsible=1;marginBottom=0;whiteSpace=wrap;html=1;" vertex="1" parent="1">
          <mxGeometry x="190" y="800" width="180" height="230" as="geometry" />
        </mxCell>
        <mxCell id="FfL3hTgW6DCg_s3KEA9l-19" value="&lt;pre style=&quot;&quot;&gt;&lt;div style=&quot;&quot;&gt;&lt;pre&gt;&lt;font face=&quot;Helvetica&quot;&gt;+ 最大行驶速度: Integer&lt;br&gt;+ 装载能力: Integer&lt;br&gt;+ 武器配置: String&lt;br&gt;+ 防护等级: Integer&lt;br&gt;+ 动力系统类型: String&lt;/font&gt;&lt;br&gt;&lt;/pre&gt;&lt;/div&gt;&lt;/pre&gt;" style="text;strokeColor=none;fillColor=none;align=left;verticalAlign=top;spacingLeft=4;spacingRight=4;overflow=hidden;rotatable=0;points=[[0,0.5],[1,0.5]];portConstraint=eastwest;whiteSpace=wrap;html=1;" vertex="1" parent="FfL3hTgW6DCg_s3KEA9l-18">
          <mxGeometry y="26" width="180" height="104" as="geometry" />
        </mxCell>
        <mxCell id="FfL3hTgW6DCg_s3KEA9l-20" value="" style="line;strokeWidth=1;fillColor=none;align=left;verticalAlign=middle;spacingTop=-1;spacingLeft=3;spacingRight=3;rotatable=0;labelPosition=right;points=[];portConstraint=eastwest;strokeColor=inherit;" vertex="1" parent="FfL3hTgW6DCg_s3KEA9l-18">
          <mxGeometry y="130" width="180" height="8" as="geometry" />
        </mxCell>
        <mxCell id="FfL3hTgW6DCg_s3KEA9l-21" value="&lt;pre style=&quot;&quot;&gt;&lt;font face=&quot;Helvetica&quot;&gt;+ 启动引擎(void): void&lt;br&gt;+ 行使移动命令(void): void&lt;br&gt;+ 开火攻击(void): void&lt;br&gt;+ 调整装备状态(void): void&lt;/font&gt;&lt;br&gt;&lt;/pre&gt;" style="text;strokeColor=none;fillColor=none;align=left;verticalAlign=top;spacingLeft=4;spacingRight=4;overflow=hidden;rotatable=0;points=[[0,0.5],[1,0.5]];portConstraint=eastwest;whiteSpace=wrap;html=1;" vertex="1" parent="FfL3hTgW6DCg_s3KEA9l-18">
          <mxGeometry y="138" width="180" height="92" as="geometry" />
        </mxCell>
        <mxCell id="FfL3hTgW6DCg_s3KEA9l-22" value="海上装备" style="swimlane;fontStyle=1;align=center;verticalAlign=top;childLayout=stackLayout;horizontal=1;startSize=26;horizontalStack=0;resizeParent=1;resizeParentMax=0;resizeLast=0;collapsible=1;marginBottom=0;whiteSpace=wrap;html=1;" vertex="1" parent="1">
          <mxGeometry x="430" y="800" width="180" height="230" as="geometry">
            <mxRectangle x="430" y="800" width="90" height="30" as="alternateBounds" />
          </mxGeometry>
        </mxCell>
        <mxCell id="FfL3hTgW6DCg_s3KEA9l-23" value="&lt;pre style=&quot;&quot;&gt;&lt;pre style=&quot;&quot;&gt;&lt;font face=&quot;Helvetica&quot;&gt;+ 最大航速: Integer&lt;br&gt;+ 最大载员数: Integer&lt;br&gt;+ 最大载重吨位: Integer&lt;br&gt;+ 推进系统类型: String&lt;br&gt;+ 水下探测系统类型: String&lt;/font&gt;&lt;br&gt;&lt;/pre&gt;&lt;/pre&gt;" style="text;strokeColor=none;fillColor=none;align=left;verticalAlign=top;spacingLeft=4;spacingRight=4;overflow=hidden;rotatable=0;points=[[0,0.5],[1,0.5]];portConstraint=eastwest;whiteSpace=wrap;html=1;" vertex="1" parent="FfL3hTgW6DCg_s3KEA9l-22">
          <mxGeometry y="26" width="180" height="104" as="geometry" />
        </mxCell>
        <mxCell id="FfL3hTgW6DCg_s3KEA9l-24" value="" style="line;strokeWidth=1;fillColor=none;align=left;verticalAlign=middle;spacingTop=-1;spacingLeft=3;spacingRight=3;rotatable=0;labelPosition=right;points=[];portConstraint=eastwest;strokeColor=inherit;" vertex="1" parent="FfL3hTgW6DCg_s3KEA9l-22">
          <mxGeometry y="130" width="180" height="8" as="geometry" />
        </mxCell>
        <mxCell id="FfL3hTgW6DCg_s3KEA9l-25" value="&lt;pre&gt;&lt;font face=&quot;Helvetica&quot;&gt;+ 起航操作(void): void&lt;br&gt;+ 航向调整命令(void): void&lt;br&gt;+ 下潜或上浮操作(void): void&lt;br&gt;+ 武器发射(void): void&lt;/font&gt;&lt;br&gt;&lt;/pre&gt;" style="text;strokeColor=none;fillColor=none;align=left;verticalAlign=top;spacingLeft=4;spacingRight=4;overflow=hidden;rotatable=0;points=[[0,0.5],[1,0.5]];portConstraint=eastwest;whiteSpace=wrap;html=1;" vertex="1" parent="FfL3hTgW6DCg_s3KEA9l-22">
          <mxGeometry y="138" width="180" height="92" as="geometry" />
        </mxCell>
        <mxCell id="FfL3hTgW6DCg_s3KEA9l-26" value="" style="endArrow=none;html=1;rounded=0;" edge="1" parent="1">
          <mxGeometry width="50" height="50" relative="1" as="geometry">
            <mxPoint x="40" y="1170" as="sourcePoint" />
            <mxPoint x="40" y="1030" as="targetPoint" />
          </mxGeometry>
        </mxCell>
        <mxCell id="FfL3hTgW6DCg_s3KEA9l-27" value="" style="endArrow=none;html=1;rounded=0;exitX=0.5;exitY=0;exitDx=0;exitDy=0;" edge="1" parent="1" source="FfL3hTgW6DCg_s3KEA9l-34">
          <mxGeometry width="50" height="50" relative="1" as="geometry">
            <mxPoint x="210" y="1170" as="sourcePoint" />
            <mxPoint x="40" y="1030" as="targetPoint" />
          </mxGeometry>
        </mxCell>
        <mxCell id="FfL3hTgW6DCg_s3KEA9l-28" value="" style="endArrow=none;html=1;rounded=0;" edge="1" parent="1">
          <mxGeometry width="50" height="50" relative="1" as="geometry">
            <mxPoint x="-70" y="1170" as="sourcePoint" />
            <mxPoint x="40" y="1030" as="targetPoint" />
          </mxGeometry>
        </mxCell>
        <mxCell id="FfL3hTgW6DCg_s3KEA9l-29" value="" style="endArrow=none;dashed=1;html=1;dashPattern=1 3;strokeWidth=2;rounded=0;" edge="1" parent="1">
          <mxGeometry width="50" height="50" relative="1" as="geometry">
            <mxPoint x="-100" y="1180" as="sourcePoint" />
            <mxPoint x="-40" y="1180" as="targetPoint" />
          </mxGeometry>
        </mxCell>
        <mxCell id="FfL3hTgW6DCg_s3KEA9l-30" value="歼击机" style="swimlane;fontStyle=1;align=center;verticalAlign=top;childLayout=stackLayout;horizontal=1;startSize=26;horizontalStack=0;resizeParent=1;resizeParentMax=0;resizeLast=0;collapsible=1;marginBottom=0;whiteSpace=wrap;html=1;" vertex="1" parent="1">
          <mxGeometry x="-30" y="1169" width="180" height="230" as="geometry" />
        </mxCell>
        <mxCell id="FfL3hTgW6DCg_s3KEA9l-31" value="&lt;pre style=&quot;&quot;&gt;&lt;div style=&quot;&quot;&gt;&lt;pre style=&quot;&quot;&gt;&lt;font face=&quot;Helvetica&quot;&gt;+ 机体长度: Double&lt;br&gt;+ 机翼面积: Double&lt;br&gt;+ 最大飞行速度: Double&lt;br&gt;+ 爬升率: Double&lt;br&gt;+ 武器挂载点数: Integer&lt;/font&gt;&lt;br&gt;&lt;/pre&gt;&lt;/div&gt;&lt;/pre&gt;" style="text;strokeColor=none;fillColor=none;align=left;verticalAlign=top;spacingLeft=4;spacingRight=4;overflow=hidden;rotatable=0;points=[[0,0.5],[1,0.5]];portConstraint=eastwest;whiteSpace=wrap;html=1;" vertex="1" parent="FfL3hTgW6DCg_s3KEA9l-30">
          <mxGeometry y="26" width="180" height="104" as="geometry" />
        </mxCell>
        <mxCell id="FfL3hTgW6DCg_s3KEA9l-32" value="" style="line;strokeWidth=1;fillColor=none;align=left;verticalAlign=middle;spacingTop=-1;spacingLeft=3;spacingRight=3;rotatable=0;labelPosition=right;points=[];portConstraint=eastwest;strokeColor=inherit;" vertex="1" parent="FfL3hTgW6DCg_s3KEA9l-30">
          <mxGeometry y="130" width="180" height="8" as="geometry" />
        </mxCell>
        <mxCell id="FfL3hTgW6DCg_s3KEA9l-33" value="&lt;pre style=&quot;&quot;&gt;&lt;font face=&quot;Helvetica&quot;&gt;+ 执行空对空作战(void): void&lt;br&gt;+ 发射空对空导弹(void): void&lt;br&gt;+ 执行空对地攻击任务(void): void&lt;br&gt;+ 高速机动规避攻击(void): void&lt;/font&gt;&lt;br&gt;&lt;/pre&gt;" style="text;strokeColor=none;fillColor=none;align=left;verticalAlign=top;spacingLeft=4;spacingRight=4;overflow=hidden;rotatable=0;points=[[0,0.5],[1,0.5]];portConstraint=eastwest;whiteSpace=wrap;html=1;" vertex="1" parent="FfL3hTgW6DCg_s3KEA9l-30">
          <mxGeometry y="138" width="180" height="92" as="geometry" />
        </mxCell>
        <mxCell id="FfL3hTgW6DCg_s3KEA9l-34" value="轰炸机" style="swimlane;fontStyle=1;align=center;verticalAlign=top;childLayout=stackLayout;horizontal=1;startSize=26;horizontalStack=0;resizeParent=1;resizeParentMax=0;resizeLast=0;collapsible=1;marginBottom=0;whiteSpace=wrap;html=1;" vertex="1" parent="1">
          <mxGeometry x="190" y="1169" width="180" height="230" as="geometry" />
        </mxCell>
        <mxCell id="FfL3hTgW6DCg_s3KEA9l-35" value="&lt;pre style=&quot;&quot;&gt;&lt;div style=&quot;&quot;&gt;&lt;pre&gt;&lt;font face=&quot;Helvetica&quot;&gt;+ 机体长度: Double&lt;br&gt;+ 机翼面积: Double&lt;br&gt;+ 最大飞行速度: Double&lt;br&gt;+ 作战半径: Double&lt;br&gt;+ 载弹量: Integer&lt;/font&gt;&lt;br&gt;&lt;/pre&gt;&lt;/div&gt;&lt;/pre&gt;" style="text;strokeColor=none;fillColor=none;align=left;verticalAlign=top;spacingLeft=4;spacingRight=4;overflow=hidden;rotatable=0;points=[[0,0.5],[1,0.5]];portConstraint=eastwest;whiteSpace=wrap;html=1;" vertex="1" parent="FfL3hTgW6DCg_s3KEA9l-34">
          <mxGeometry y="26" width="180" height="104" as="geometry" />
        </mxCell>
        <mxCell id="FfL3hTgW6DCg_s3KEA9l-36" value="" style="line;strokeWidth=1;fillColor=none;align=left;verticalAlign=middle;spacingTop=-1;spacingLeft=3;spacingRight=3;rotatable=0;labelPosition=right;points=[];portConstraint=eastwest;strokeColor=inherit;" vertex="1" parent="FfL3hTgW6DCg_s3KEA9l-34">
          <mxGeometry y="130" width="180" height="8" as="geometry" />
        </mxCell>
        <mxCell id="FfL3hTgW6DCg_s3KEA9l-37" value="&lt;pre style=&quot;&quot;&gt;&lt;font face=&quot;Helvetica&quot;&gt;+ 执行战略轰炸任务(void): void&lt;br&gt;+ 投掷常规炸弹(void): void&lt;br&gt;+ 发射空射巡航导弹(void): void&lt;br&gt;+ 进行低空突防攻击(void): void&lt;/font&gt;&lt;br&gt;&lt;/pre&gt;" style="text;strokeColor=none;fillColor=none;align=left;verticalAlign=top;spacingLeft=4;spacingRight=4;overflow=hidden;rotatable=0;points=[[0,0.5],[1,0.5]];portConstraint=eastwest;whiteSpace=wrap;html=1;" vertex="1" parent="FfL3hTgW6DCg_s3KEA9l-34">
          <mxGeometry y="138" width="180" height="92" as="geometry" />
        </mxCell>
        <mxCell id="FfL3hTgW6DCg_s3KEA9l-38" value="" style="endArrow=none;html=1;rounded=0;entryX=0.497;entryY=1.024;entryDx=0;entryDy=0;entryPerimeter=0;" edge="1" parent="1" target="FfL3hTgW6DCg_s3KEA9l-21">
          <mxGeometry width="50" height="50" relative="1" as="geometry">
            <mxPoint x="279" y="1080" as="sourcePoint" />
            <mxPoint x="60" y="970" as="targetPoint" />
          </mxGeometry>
        </mxCell>
        <mxCell id="FfL3hTgW6DCg_s3KEA9l-40" value="" style="endArrow=none;dashed=1;html=1;dashPattern=1 3;strokeWidth=2;rounded=0;" edge="1" parent="1">
          <mxGeometry width="50" height="50" relative="1" as="geometry">
            <mxPoint x="250" y="1090" as="sourcePoint" />
            <mxPoint x="310" y="1090" as="targetPoint" />
          </mxGeometry>
        </mxCell>
        <mxCell id="FfL3hTgW6DCg_s3KEA9l-42" value="" style="endArrow=none;html=1;rounded=0;entryX=0.497;entryY=1.024;entryDx=0;entryDy=0;entryPerimeter=0;" edge="1" parent="1">
          <mxGeometry width="50" height="50" relative="1" as="geometry">
            <mxPoint x="519" y="1078" as="sourcePoint" />
            <mxPoint x="519" y="1030" as="targetPoint" />
          </mxGeometry>
        </mxCell>
        <mxCell id="FfL3hTgW6DCg_s3KEA9l-43" value="" style="endArrow=none;dashed=1;html=1;dashPattern=1 3;strokeWidth=2;rounded=0;" edge="1" parent="1">
          <mxGeometry width="50" height="50" relative="1" as="geometry">
            <mxPoint x="490" y="1088" as="sourcePoint" />
            <mxPoint x="550" y="1088" as="targetPoint" />
          </mxGeometry>
        </mxCell>
      </root>
    </mxGraphModel>
  </diagram>
</mxfile>
